<?xml version='1.0' encoding='UTF-8'?>
<svg height="98mm" version="1.1" width="98mm" xmlns="http://www.w3.org/2000/svg"><rect height="2mm" width="2mm" x="8mm" y="8mm"/><rect height="2mm" width="2mm" x="10mm" y="8mm"/><rect height="2mm" width="2mm" x="12mm" y="8mm"/><rect height="2mm" width="2mm" x="14mm" y="8mm"/><rect height="2mm" width="2mm" x="16mm" y="8mm"/><rect height="2mm" width="2mm" x="18mm" y="8mm"/><rect height="2mm" width="2mm" x="20mm" y="8mm"/><rect height="2mm" width="2mm" x="26mm" y="8mm"/><rect height="2mm" width="2mm" x="28mm" y="8mm"/><rect height="2mm" width="2mm" x="32mm" y="8mm"/><rect height="2mm" width="2mm" x="34mm" y="8mm"/><rect height="2mm" width="2mm" x="36mm" y="8mm"/><rect height="2mm" width="2mm" x="42mm" y="8mm"/><rect height="2mm" width="2mm" x="44mm" y="8mm"/><rect height="2mm" width="2mm" x="46mm" y="8mm"/><rect height="2mm" width="2mm" x="48mm" y="8mm"/><rect height="2mm" width="2mm" x="50mm" y="8mm"/><rect height="2mm" width="2mm" x="52mm" y="8mm"/><rect height="2mm" width="2mm" x="54mm" y="8mm"/><rect height="2mm" width="2mm" x="56mm" y="8mm"/><rect height="2mm" width="2mm" x="58mm" y="8mm"/><rect height="2mm" width="2mm" x="60mm" y="8mm"/><rect height="2mm" width="2mm" x="64mm" y="8mm"/><rect height="2mm" width="2mm" x="68mm" y="8mm"/><rect height="2mm" width="2mm" x="70mm" y="8mm"/><rect height="2mm" width="2mm" x="72mm" y="8mm"/><rect height="2mm" width="2mm" x="76mm" y="8mm"/><rect height="2mm" width="2mm" x="78mm" y="8mm"/><rect height="2mm" width="2mm" x="80mm" y="8mm"/><rect height="2mm" width="2mm" x="82mm" y="8mm"/><rect height="2mm" width="2mm" x="84mm" y="8mm"/><rect height="2mm" width="2mm" x="86mm" y="8mm"/><rect height="2mm" width="2mm" x="88mm" y="8mm"/><rect height="2mm" width="2mm" x="8mm" y="10mm"/><rect height="2mm" width="2mm" x="20mm" y="10mm"/><rect height="2mm" width="2mm" x="28mm" y="10mm"/><rect height="2mm" width="2mm" x="30mm" y="10mm"/><rect height="2mm" width="2mm" x="34mm" y="10mm"/><rect height="2mm" width="2mm" x="36mm" y="10mm"/><rect height="2mm" width="2mm" x="38mm" y="10mm"/><rect height="2mm" width="2mm" x="40mm" y="10mm"/><rect height="2mm" width="2mm" x="44mm" y="10mm"/><rect height="2mm" width="2mm" x="46mm" y="10mm"/><rect height="2mm" width="2mm" x="48mm" y="10mm"/><rect height="2mm" width="2mm" x="56mm" y="10mm"/><rect height="2mm" width="2mm" x="58mm" y="10mm"/><rect height="2mm" width="2mm" x="66mm" y="10mm"/><rect height="2mm" width="2mm" x="76mm" y="10mm"/><rect height="2mm" width="2mm" x="88mm" y="10mm"/><rect height="2mm" width="2mm" x="8mm" y="12mm"/><rect height="2mm" width="2mm" x="12mm" y="12mm"/><rect height="2mm" width="2mm" x="14mm" y="12mm"/><rect height="2mm" width="2mm" x="16mm" y="12mm"/><rect height="2mm" width="2mm" x="20mm" y="12mm"/><rect height="2mm" width="2mm" x="26mm" y="12mm"/><rect height="2mm" width="2mm" x="30mm" y="12mm"/><rect height="2mm" width="2mm" x="32mm" y="12mm"/><rect height="2mm" width="2mm" x="34mm" y="12mm"/><rect height="2mm" width="2mm" x="38mm" y="12mm"/><rect height="2mm" width="2mm" x="40mm" y="12mm"/><rect height="2mm" width="2mm" x="44mm" y="12mm"/><rect height="2mm" width="2mm" x="48mm" y="12mm"/><rect height="2mm" width="2mm" x="50mm" y="12mm"/><rect height="2mm" width="2mm" x="56mm" y="12mm"/><rect height="2mm" width="2mm" x="62mm" y="12mm"/><rect height="2mm" width="2mm" x="68mm" y="12mm"/><rect height="2mm" width="2mm" x="70mm" y="12mm"/><rect height="2mm" width="2mm" x="76mm" y="12mm"/><rect height="2mm" width="2mm" x="80mm" y="12mm"/><rect height="2mm" width="2mm" x="82mm" y="12mm"/><rect height="2mm" width="2mm" x="84mm" y="12mm"/><rect height="2mm" width="2mm" x="88mm" y="12mm"/><rect height="2mm" width="2mm" x="8mm" y="14mm"/><rect height="2mm" width="2mm" x="12mm" y="14mm"/><rect height="2mm" width="2mm" x="14mm" y="14mm"/><rect height="2mm" width="2mm" x="16mm" y="14mm"/><rect height="2mm" width="2mm" x="20mm" y="14mm"/><rect height="2mm" width="2mm" x="32mm" y="14mm"/><rect height="2mm" width="2mm" x="40mm" y="14mm"/><rect height="2mm" width="2mm" x="44mm" y="14mm"/><rect height="2mm" width="2mm" x="46mm" y="14mm"/><rect height="2mm" width="2mm" x="52mm" y="14mm"/><rect height="2mm" width="2mm" x="56mm" y="14mm"/><rect height="2mm" width="2mm" x="60mm" y="14mm"/><rect height="2mm" width="2mm" x="62mm" y="14mm"/><rect height="2mm" width="2mm" x="68mm" y="14mm"/><rect height="2mm" width="2mm" x="70mm" y="14mm"/><rect height="2mm" width="2mm" x="72mm" y="14mm"/><rect height="2mm" width="2mm" x="76mm" y="14mm"/><rect height="2mm" width="2mm" x="80mm" y="14mm"/><rect height="2mm" width="2mm" x="82mm" y="14mm"/><rect height="2mm" width="2mm" x="84mm" y="14mm"/><rect height="2mm" width="2mm" x="88mm" y="14mm"/><rect height="2mm" width="2mm" x="8mm" y="16mm"/><rect height="2mm" width="2mm" x="12mm" y="16mm"/><rect height="2mm" width="2mm" x="14mm" y="16mm"/><rect height="2mm" width="2mm" x="16mm" y="16mm"/><rect height="2mm" width="2mm" x="20mm" y="16mm"/><rect height="2mm" width="2mm" x="24mm" y="16mm"/><rect height="2mm" width="2mm" x="28mm" y="16mm"/><rect height="2mm" width="2mm" x="30mm" y="16mm"/><rect height="2mm" width="2mm" x="32mm" y="16mm"/><rect height="2mm" width="2mm" x="36mm" y="16mm"/><rect height="2mm" width="2mm" x="38mm" y="16mm"/><rect height="2mm" width="2mm" x="40mm" y="16mm"/><rect height="2mm" width="2mm" x="46mm" y="16mm"/><rect height="2mm" width="2mm" x="50mm" y="16mm"/><rect height="2mm" width="2mm" x="58mm" y="16mm"/><rect height="2mm" width="2mm" x="60mm" y="16mm"/><rect height="2mm" width="2mm" x="62mm" y="16mm"/><rect height="2mm" width="2mm" x="64mm" y="16mm"/><rect height="2mm" width="2mm" x="68mm" y="16mm"/><rect height="2mm" width="2mm" x="70mm" y="16mm"/><rect height="2mm" width="2mm" x="76mm" y="16mm"/><rect height="2mm" width="2mm" x="80mm" y="16mm"/><rect height="2mm" width="2mm" x="82mm" y="16mm"/><rect height="2mm" width="2mm" x="84mm" y="16mm"/><rect height="2mm" width="2mm" x="88mm" y="16mm"/><rect height="2mm" width="2mm" x="8mm" y="18mm"/><rect height="2mm" width="2mm" x="20mm" y="18mm"/><rect height="2mm" width="2mm" x="28mm" y="18mm"/><rect height="2mm" width="2mm" x="30mm" y="18mm"/><rect height="2mm" width="2mm" x="32mm" y="18mm"/><rect height="2mm" width="2mm" x="36mm" y="18mm"/><rect height="2mm" width="2mm" x="38mm" y="18mm"/><rect height="2mm" width="2mm" x="40mm" y="18mm"/><rect height="2mm" width="2mm" x="44mm" y="18mm"/><rect height="2mm" width="2mm" x="50mm" y="18mm"/><rect height="2mm" width="2mm" x="58mm" y="18mm"/><rect height="2mm" width="2mm" x="64mm" y="18mm"/><rect height="2mm" width="2mm" x="66mm" y="18mm"/><rect height="2mm" width="2mm" x="68mm" y="18mm"/><rect height="2mm" width="2mm" x="70mm" y="18mm"/><rect height="2mm" width="2mm" x="72mm" y="18mm"/><rect height="2mm" width="2mm" x="76mm" y="18mm"/><rect height="2mm" width="2mm" x="88mm" y="18mm"/><rect height="2mm" width="2mm" x="8mm" y="20mm"/><rect height="2mm" width="2mm" x="10mm" y="20mm"/><rect height="2mm" width="2mm" x="12mm" y="20mm"/><rect height="2mm" width="2mm" x="14mm" y="20mm"/><rect height="2mm" width="2mm" x="16mm" y="20mm"/><rect height="2mm" width="2mm" x="18mm" y="20mm"/><rect height="2mm" width="2mm" x="20mm" y="20mm"/><rect height="2mm" width="2mm" x="24mm" y="20mm"/><rect height="2mm" width="2mm" x="28mm" y="20mm"/><rect height="2mm" width="2mm" x="32mm" y="20mm"/><rect height="2mm" width="2mm" x="36mm" y="20mm"/><rect height="2mm" width="2mm" x="40mm" y="20mm"/><rect height="2mm" width="2mm" x="44mm" y="20mm"/><rect height="2mm" width="2mm" x="48mm" y="20mm"/><rect height="2mm" width="2mm" x="52mm" y="20mm"/><rect height="2mm" width="2mm" x="56mm" y="20mm"/><rect height="2mm" width="2mm" x="60mm" y="20mm"/><rect height="2mm" width="2mm" x="64mm" y="20mm"/><rect height="2mm" width="2mm" x="68mm" y="20mm"/><rect height="2mm" width="2mm" x="72mm" y="20mm"/><rect height="2mm" width="2mm" x="76mm" y="20mm"/><rect height="2mm" width="2mm" x="78mm" y="20mm"/><rect height="2mm" width="2mm" x="80mm" y="20mm"/><rect height="2mm" width="2mm" x="82mm" y="20mm"/><rect height="2mm" width="2mm" x="84mm" y="20mm"/><rect height="2mm" width="2mm" x="86mm" y="20mm"/><rect height="2mm" width="2mm" x="88mm" y="20mm"/><rect height="2mm" width="2mm" x="24mm" y="22mm"/><rect height="2mm" width="2mm" x="26mm" y="22mm"/><rect height="2mm" width="2mm" x="30mm" y="22mm"/><rect height="2mm" width="2mm" x="32mm" y="22mm"/><rect height="2mm" width="2mm" x="36mm" y="22mm"/><rect height="2mm" width="2mm" x="38mm" y="22mm"/><rect height="2mm" width="2mm" x="42mm" y="22mm"/><rect height="2mm" width="2mm" x="44mm" y="22mm"/><rect height="2mm" width="2mm" x="48mm" y="22mm"/><rect height="2mm" width="2mm" x="52mm" y="22mm"/><rect height="2mm" width="2mm" x="58mm" y="22mm"/><rect height="2mm" width="2mm" x="60mm" y="22mm"/><rect height="2mm" width="2mm" x="62mm" y="22mm"/><rect height="2mm" width="2mm" x="64mm" y="22mm"/><rect height="2mm" width="2mm" x="66mm" y="22mm"/><rect height="2mm" width="2mm" x="68mm" y="22mm"/><rect height="2mm" width="2mm" x="72mm" y="22mm"/><rect height="2mm" width="2mm" x="12mm" y="24mm"/><rect height="2mm" width="2mm" x="14mm" y="24mm"/><rect height="2mm" width="2mm" x="20mm" y="24mm"/><rect height="2mm" width="2mm" x="22mm" y="24mm"/><rect height="2mm" width="2mm" x="24mm" y="24mm"/><rect height="2mm" width="2mm" x="26mm" y="24mm"/><rect height="2mm" width="2mm" x="38mm" y="24mm"/><rect height="2mm" width="2mm" x="40mm" y="24mm"/><rect height="2mm" width="2mm" x="42mm" y="24mm"/><rect height="2mm" width="2mm" x="44mm" y="24mm"/><rect height="2mm" width="2mm" x="48mm" y="24mm"/><rect height="2mm" width="2mm" x="56mm" y="24mm"/><rect height="2mm" width="2mm" x="64mm" y="24mm"/><rect height="2mm" width="2mm" x="66mm" y="24mm"/><rect height="2mm" width="2mm" x="68mm" y="24mm"/><rect height="2mm" width="2mm" x="70mm" y="24mm"/><rect height="2mm" width="2mm" x="74mm" y="24mm"/><rect height="2mm" width="2mm" x="76mm" y="24mm"/><rect height="2mm" width="2mm" x="80mm" y="24mm"/><rect height="2mm" width="2mm" x="14mm" y="26mm"/><rect height="2mm" width="2mm" x="18mm" y="26mm"/><rect height="2mm" width="2mm" x="24mm" y="26mm"/><rect height="2mm" width="2mm" x="26mm" y="26mm"/><rect height="2mm" width="2mm" x="28mm" y="26mm"/><rect height="2mm" width="2mm" x="34mm" y="26mm"/><rect height="2mm" width="2mm" x="36mm" y="26mm"/><rect height="2mm" width="2mm" x="40mm" y="26mm"/><rect height="2mm" width="2mm" x="48mm" y="26mm"/><rect height="2mm" width="2mm" x="50mm" y="26mm"/><rect height="2mm" width="2mm" x="52mm" y="26mm"/><rect height="2mm" width="2mm" x="54mm" y="26mm"/><rect height="2mm" width="2mm" x="58mm" y="26mm"/><rect height="2mm" width="2mm" x="64mm" y="26mm"/><rect height="2mm" width="2mm" x="68mm" y="26mm"/><rect height="2mm" width="2mm" x="70mm" y="26mm"/><rect height="2mm" width="2mm" x="72mm" y="26mm"/><rect height="2mm" width="2mm" x="76mm" y="26mm"/><rect height="2mm" width="2mm" x="78mm" y="26mm"/><rect height="2mm" width="2mm" x="80mm" y="26mm"/><rect height="2mm" width="2mm" x="82mm" y="26mm"/><rect height="2mm" width="2mm" x="86mm" y="26mm"/><rect height="2mm" width="2mm" x="10mm" y="28mm"/><rect height="2mm" width="2mm" x="12mm" y="28mm"/><rect height="2mm" width="2mm" x="16mm" y="28mm"/><rect height="2mm" width="2mm" x="18mm" y="28mm"/><rect height="2mm" width="2mm" x="20mm" y="28mm"/><rect height="2mm" width="2mm" x="24mm" y="28mm"/><rect height="2mm" width="2mm" x="26mm" y="28mm"/><rect height="2mm" width="2mm" x="30mm" y="28mm"/><rect height="2mm" width="2mm" x="32mm" y="28mm"/><rect height="2mm" width="2mm" x="34mm" y="28mm"/><rect height="2mm" width="2mm" x="36mm" y="28mm"/><rect height="2mm" width="2mm" x="42mm" y="28mm"/><rect height="2mm" width="2mm" x="44mm" y="28mm"/><rect height="2mm" width="2mm" x="48mm" y="28mm"/><rect height="2mm" width="2mm" x="52mm" y="28mm"/><rect height="2mm" width="2mm" x="56mm" y="28mm"/><rect height="2mm" width="2mm" x="58mm" y="28mm"/><rect height="2mm" width="2mm" x="78mm" y="28mm"/><rect height="2mm" width="2mm" x="84mm" y="28mm"/><rect height="2mm" width="2mm" x="14mm" y="30mm"/><rect height="2mm" width="2mm" x="24mm" y="30mm"/><rect height="2mm" width="2mm" x="26mm" y="30mm"/><rect height="2mm" width="2mm" x="30mm" y="30mm"/><rect height="2mm" width="2mm" x="32mm" y="30mm"/><rect height="2mm" width="2mm" x="36mm" y="30mm"/><rect height="2mm" width="2mm" x="40mm" y="30mm"/><rect height="2mm" width="2mm" x="42mm" y="30mm"/><rect height="2mm" width="2mm" x="44mm" y="30mm"/><rect height="2mm" width="2mm" x="48mm" y="30mm"/><rect height="2mm" width="2mm" x="50mm" y="30mm"/><rect height="2mm" width="2mm" x="52mm" y="30mm"/><rect height="2mm" width="2mm" x="54mm" y="30mm"/><rect height="2mm" width="2mm" x="56mm" y="30mm"/><rect height="2mm" width="2mm" x="58mm" y="30mm"/><rect height="2mm" width="2mm" x="60mm" y="30mm"/><rect height="2mm" width="2mm" x="62mm" y="30mm"/><rect height="2mm" width="2mm" x="68mm" y="30mm"/><rect height="2mm" width="2mm" x="70mm" y="30mm"/><rect height="2mm" width="2mm" x="74mm" y="30mm"/><rect height="2mm" width="2mm" x="76mm" y="30mm"/><rect height="2mm" width="2mm" x="80mm" y="30mm"/><rect height="2mm" width="2mm" x="88mm" y="30mm"/><rect height="2mm" width="2mm" x="10mm" y="32mm"/><rect height="2mm" width="2mm" x="16mm" y="32mm"/><rect height="2mm" width="2mm" x="18mm" y="32mm"/><rect height="2mm" width="2mm" x="20mm" y="32mm"/><rect height="2mm" width="2mm" x="24mm" y="32mm"/><rect height="2mm" width="2mm" x="26mm" y="32mm"/><rect height="2mm" width="2mm" x="34mm" y="32mm"/><rect height="2mm" width="2mm" x="36mm" y="32mm"/><rect height="2mm" width="2mm" x="38mm" y="32mm"/><rect height="2mm" width="2mm" x="42mm" y="32mm"/><rect height="2mm" width="2mm" x="48mm" y="32mm"/><rect height="2mm" width="2mm" x="54mm" y="32mm"/><rect height="2mm" width="2mm" x="56mm" y="32mm"/><rect height="2mm" width="2mm" x="62mm" y="32mm"/><rect height="2mm" width="2mm" x="64mm" y="32mm"/><rect height="2mm" width="2mm" x="66mm" y="32mm"/><rect height="2mm" width="2mm" x="74mm" y="32mm"/><rect height="2mm" width="2mm" x="84mm" y="32mm"/><rect height="2mm" width="2mm" x="10mm" y="34mm"/><rect height="2mm" width="2mm" x="18mm" y="34mm"/><rect height="2mm" width="2mm" x="22mm" y="34mm"/><rect height="2mm" width="2mm" x="26mm" y="34mm"/><rect height="2mm" width="2mm" x="28mm" y="34mm"/><rect height="2mm" width="2mm" x="30mm" y="34mm"/><rect height="2mm" width="2mm" x="36mm" y="34mm"/><rect height="2mm" width="2mm" x="42mm" y="34mm"/><rect height="2mm" width="2mm" x="46mm" y="34mm"/><rect height="2mm" width="2mm" x="48mm" y="34mm"/><rect height="2mm" width="2mm" x="50mm" y="34mm"/><rect height="2mm" width="2mm" x="54mm" y="34mm"/><rect height="2mm" width="2mm" x="60mm" y="34mm"/><rect height="2mm" width="2mm" x="66mm" y="34mm"/><rect height="2mm" width="2mm" x="74mm" y="34mm"/><rect height="2mm" width="2mm" x="84mm" y="34mm"/><rect height="2mm" width="2mm" x="86mm" y="34mm"/><rect height="2mm" width="2mm" x="88mm" y="34mm"/><rect height="2mm" width="2mm" x="10mm" y="36mm"/><rect height="2mm" width="2mm" x="14mm" y="36mm"/><rect height="2mm" width="2mm" x="18mm" y="36mm"/><rect height="2mm" width="2mm" x="20mm" y="36mm"/><rect height="2mm" width="2mm" x="22mm" y="36mm"/><rect height="2mm" width="2mm" x="36mm" y="36mm"/><rect height="2mm" width="2mm" x="40mm" y="36mm"/><rect height="2mm" width="2mm" x="44mm" y="36mm"/><rect height="2mm" width="2mm" x="50mm" y="36mm"/><rect height="2mm" width="2mm" x="52mm" y="36mm"/><rect height="2mm" width="2mm" x="56mm" y="36mm"/><rect height="2mm" width="2mm" x="68mm" y="36mm"/><rect height="2mm" width="2mm" x="74mm" y="36mm"/><rect height="2mm" width="2mm" x="76mm" y="36mm"/><rect height="2mm" width="2mm" x="86mm" y="36mm"/><rect height="2mm" width="2mm" x="88mm" y="36mm"/><rect height="2mm" width="2mm" x="8mm" y="38mm"/><rect height="2mm" width="2mm" x="10mm" y="38mm"/><rect height="2mm" width="2mm" x="12mm" y="38mm"/><rect height="2mm" width="2mm" x="16mm" y="38mm"/><rect height="2mm" width="2mm" x="26mm" y="38mm"/><rect height="2mm" width="2mm" x="28mm" y="38mm"/><rect height="2mm" width="2mm" x="34mm" y="38mm"/><rect height="2mm" width="2mm" x="38mm" y="38mm"/><rect height="2mm" width="2mm" x="42mm" y="38mm"/><rect height="2mm" width="2mm" x="44mm" y="38mm"/><rect height="2mm" width="2mm" x="48mm" y="38mm"/><rect height="2mm" width="2mm" x="50mm" y="38mm"/><rect height="2mm" width="2mm" x="52mm" y="38mm"/><rect height="2mm" width="2mm" x="56mm" y="38mm"/><rect height="2mm" width="2mm" x="62mm" y="38mm"/><rect height="2mm" width="2mm" x="68mm" y="38mm"/><rect height="2mm" width="2mm" x="70mm" y="38mm"/><rect height="2mm" width="2mm" x="72mm" y="38mm"/><rect height="2mm" width="2mm" x="74mm" y="38mm"/><rect height="2mm" width="2mm" x="76mm" y="38mm"/><rect height="2mm" width="2mm" x="78mm" y="38mm"/><rect height="2mm" width="2mm" x="80mm" y="38mm"/><rect height="2mm" width="2mm" x="82mm" y="38mm"/><rect height="2mm" width="2mm" x="10mm" y="40mm"/><rect height="2mm" width="2mm" x="16mm" y="40mm"/><rect height="2mm" width="2mm" x="20mm" y="40mm"/><rect height="2mm" width="2mm" x="28mm" y="40mm"/><rect height="2mm" width="2mm" x="32mm" y="40mm"/><rect height="2mm" width="2mm" x="36mm" y="40mm"/><rect height="2mm" width="2mm" x="52mm" y="40mm"/><rect height="2mm" width="2mm" x="56mm" y="40mm"/><rect height="2mm" width="2mm" x="58mm" y="40mm"/><rect height="2mm" width="2mm" x="64mm" y="40mm"/><rect height="2mm" width="2mm" x="68mm" y="40mm"/><rect height="2mm" width="2mm" x="70mm" y="40mm"/><rect height="2mm" width="2mm" x="72mm" y="40mm"/><rect height="2mm" width="2mm" x="74mm" y="40mm"/><rect height="2mm" width="2mm" x="78mm" y="40mm"/><rect height="2mm" width="2mm" x="80mm" y="40mm"/><rect height="2mm" width="2mm" x="82mm" y="40mm"/><rect height="2mm" width="2mm" x="12mm" y="42mm"/><rect height="2mm" width="2mm" x="14mm" y="42mm"/><rect height="2mm" width="2mm" x="22mm" y="42mm"/><rect height="2mm" width="2mm" x="26mm" y="42mm"/><rect height="2mm" width="2mm" x="30mm" y="42mm"/><rect height="2mm" width="2mm" x="32mm" y="42mm"/><rect height="2mm" width="2mm" x="34mm" y="42mm"/><rect height="2mm" width="2mm" x="38mm" y="42mm"/><rect height="2mm" width="2mm" x="42mm" y="42mm"/><rect height="2mm" width="2mm" x="50mm" y="42mm"/><rect height="2mm" width="2mm" x="52mm" y="42mm"/><rect height="2mm" width="2mm" x="58mm" y="42mm"/><rect height="2mm" width="2mm" x="62mm" y="42mm"/><rect height="2mm" width="2mm" x="66mm" y="42mm"/><rect height="2mm" width="2mm" x="72mm" y="42mm"/><rect height="2mm" width="2mm" x="78mm" y="42mm"/><rect height="2mm" width="2mm" x="82mm" y="42mm"/><rect height="2mm" width="2mm" x="18mm" y="44mm"/><rect height="2mm" width="2mm" x="20mm" y="44mm"/><rect height="2mm" width="2mm" x="28mm" y="44mm"/><rect height="2mm" width="2mm" x="30mm" y="44mm"/><rect height="2mm" width="2mm" x="34mm" y="44mm"/><rect height="2mm" width="2mm" x="52mm" y="44mm"/><rect height="2mm" width="2mm" x="54mm" y="44mm"/><rect height="2mm" width="2mm" x="56mm" y="44mm"/><rect height="2mm" width="2mm" x="58mm" y="44mm"/><rect height="2mm" width="2mm" x="62mm" y="44mm"/><rect height="2mm" width="2mm" x="64mm" y="44mm"/><rect height="2mm" width="2mm" x="66mm" y="44mm"/><rect height="2mm" width="2mm" x="72mm" y="44mm"/><rect height="2mm" width="2mm" x="74mm" y="44mm"/><rect height="2mm" width="2mm" x="76mm" y="44mm"/><rect height="2mm" width="2mm" x="78mm" y="44mm"/><rect height="2mm" width="2mm" x="82mm" y="44mm"/><rect height="2mm" width="2mm" x="84mm" y="44mm"/><rect height="2mm" width="2mm" x="8mm" y="46mm"/><rect height="2mm" width="2mm" x="10mm" y="46mm"/><rect height="2mm" width="2mm" x="12mm" y="46mm"/><rect height="2mm" width="2mm" x="16mm" y="46mm"/><rect height="2mm" width="2mm" x="18mm" y="46mm"/><rect height="2mm" width="2mm" x="28mm" y="46mm"/><rect height="2mm" width="2mm" x="32mm" y="46mm"/><rect height="2mm" width="2mm" x="40mm" y="46mm"/><rect height="2mm" width="2mm" x="46mm" y="46mm"/><rect height="2mm" width="2mm" x="48mm" y="46mm"/><rect height="2mm" width="2mm" x="50mm" y="46mm"/><rect height="2mm" width="2mm" x="56mm" y="46mm"/><rect height="2mm" width="2mm" x="58mm" y="46mm"/><rect height="2mm" width="2mm" x="60mm" y="46mm"/><rect height="2mm" width="2mm" x="62mm" y="46mm"/><rect height="2mm" width="2mm" x="64mm" y="46mm"/><rect height="2mm" width="2mm" x="70mm" y="46mm"/><rect height="2mm" width="2mm" x="72mm" y="46mm"/><rect height="2mm" width="2mm" x="78mm" y="46mm"/><rect height="2mm" width="2mm" x="82mm" y="46mm"/><rect height="2mm" width="2mm" x="84mm" y="46mm"/><rect height="2mm" width="2mm" x="86mm" y="46mm"/><rect height="2mm" width="2mm" x="88mm" y="46mm"/><rect height="2mm" width="2mm" x="8mm" y="48mm"/><rect height="2mm" width="2mm" x="10mm" y="48mm"/><rect height="2mm" width="2mm" x="14mm" y="48mm"/><rect height="2mm" width="2mm" x="16mm" y="48mm"/><rect height="2mm" width="2mm" x="18mm" y="48mm"/><rect height="2mm" width="2mm" x="20mm" y="48mm"/><rect height="2mm" width="2mm" x="22mm" y="48mm"/><rect height="2mm" width="2mm" x="30mm" y="48mm"/><rect height="2mm" width="2mm" x="34mm" y="48mm"/><rect height="2mm" width="2mm" x="42mm" y="48mm"/><rect height="2mm" width="2mm" x="44mm" y="48mm"/><rect height="2mm" width="2mm" x="46mm" y="48mm"/><rect height="2mm" width="2mm" x="50mm" y="48mm"/><rect height="2mm" width="2mm" x="54mm" y="48mm"/><rect height="2mm" width="2mm" x="56mm" y="48mm"/><rect height="2mm" width="2mm" x="58mm" y="48mm"/><rect height="2mm" width="2mm" x="60mm" y="48mm"/><rect height="2mm" width="2mm" x="64mm" y="48mm"/><rect height="2mm" width="2mm" x="68mm" y="48mm"/><rect height="2mm" width="2mm" x="70mm" y="48mm"/><rect height="2mm" width="2mm" x="74mm" y="48mm"/><rect height="2mm" width="2mm" x="76mm" y="48mm"/><rect height="2mm" width="2mm" x="82mm" y="48mm"/><rect height="2mm" width="2mm" x="84mm" y="48mm"/><rect height="2mm" width="2mm" x="86mm" y="48mm"/><rect height="2mm" width="2mm" x="22mm" y="50mm"/><rect height="2mm" width="2mm" x="28mm" y="50mm"/><rect height="2mm" width="2mm" x="30mm" y="50mm"/><rect height="2mm" width="2mm" x="32mm" y="50mm"/><rect height="2mm" width="2mm" x="42mm" y="50mm"/><rect height="2mm" width="2mm" x="46mm" y="50mm"/><rect height="2mm" width="2mm" x="48mm" y="50mm"/><rect height="2mm" width="2mm" x="52mm" y="50mm"/><rect height="2mm" width="2mm" x="56mm" y="50mm"/><rect height="2mm" width="2mm" x="58mm" y="50mm"/><rect height="2mm" width="2mm" x="60mm" y="50mm"/><rect height="2mm" width="2mm" x="64mm" y="50mm"/><rect height="2mm" width="2mm" x="66mm" y="50mm"/><rect height="2mm" width="2mm" x="68mm" y="50mm"/><rect height="2mm" width="2mm" x="70mm" y="50mm"/><rect height="2mm" width="2mm" x="72mm" y="50mm"/><rect height="2mm" width="2mm" x="74mm" y="50mm"/><rect height="2mm" width="2mm" x="76mm" y="50mm"/><rect height="2mm" width="2mm" x="78mm" y="50mm"/><rect height="2mm" width="2mm" x="82mm" y="50mm"/><rect height="2mm" width="2mm" x="84mm" y="50mm"/><rect height="2mm" width="2mm" x="10mm" y="52mm"/><rect height="2mm" width="2mm" x="16mm" y="52mm"/><rect height="2mm" width="2mm" x="18mm" y="52mm"/><rect height="2mm" width="2mm" x="20mm" y="52mm"/><rect height="2mm" width="2mm" x="24mm" y="52mm"/><rect height="2mm" width="2mm" x="26mm" y="52mm"/><rect height="2mm" width="2mm" x="28mm" y="52mm"/><rect height="2mm" width="2mm" x="36mm" y="52mm"/><rect height="2mm" width="2mm" x="38mm" y="52mm"/><rect height="2mm" width="2mm" x="40mm" y="52mm"/><rect height="2mm" width="2mm" x="44mm" y="52mm"/><rect height="2mm" width="2mm" x="46mm" y="52mm"/><rect height="2mm" width="2mm" x="48mm" y="52mm"/><rect height="2mm" width="2mm" x="50mm" y="52mm"/><rect height="2mm" width="2mm" x="52mm" y="52mm"/><rect height="2mm" width="2mm" x="58mm" y="52mm"/><rect height="2mm" width="2mm" x="66mm" y="52mm"/><rect height="2mm" width="2mm" x="74mm" y="52mm"/><rect height="2mm" width="2mm" x="78mm" y="52mm"/><rect height="2mm" width="2mm" x="80mm" y="52mm"/><rect height="2mm" width="2mm" x="86mm" y="52mm"/><rect height="2mm" width="2mm" x="10mm" y="54mm"/><rect height="2mm" width="2mm" x="16mm" y="54mm"/><rect height="2mm" width="2mm" x="18mm" y="54mm"/><rect height="2mm" width="2mm" x="22mm" y="54mm"/><rect height="2mm" width="2mm" x="24mm" y="54mm"/><rect height="2mm" width="2mm" x="26mm" y="54mm"/><rect height="2mm" width="2mm" x="30mm" y="54mm"/><rect height="2mm" width="2mm" x="32mm" y="54mm"/><rect height="2mm" width="2mm" x="36mm" y="54mm"/><rect height="2mm" width="2mm" x="38mm" y="54mm"/><rect height="2mm" width="2mm" x="40mm" y="54mm"/><rect height="2mm" width="2mm" x="42mm" y="54mm"/><rect height="2mm" width="2mm" x="44mm" y="54mm"/><rect height="2mm" width="2mm" x="46mm" y="54mm"/><rect height="2mm" width="2mm" x="54mm" y="54mm"/><rect height="2mm" width="2mm" x="56mm" y="54mm"/><rect height="2mm" width="2mm" x="64mm" y="54mm"/><rect height="2mm" width="2mm" x="68mm" y="54mm"/><rect height="2mm" width="2mm" x="72mm" y="54mm"/><rect height="2mm" width="2mm" x="78mm" y="54mm"/><rect height="2mm" width="2mm" x="80mm" y="54mm"/><rect height="2mm" width="2mm" x="84mm" y="54mm"/><rect height="2mm" width="2mm" x="86mm" y="54mm"/><rect height="2mm" width="2mm" x="88mm" y="54mm"/><rect height="2mm" width="2mm" x="8mm" y="56mm"/><rect height="2mm" width="2mm" x="16mm" y="56mm"/><rect height="2mm" width="2mm" x="20mm" y="56mm"/><rect height="2mm" width="2mm" x="30mm" y="56mm"/><rect height="2mm" width="2mm" x="32mm" y="56mm"/><rect height="2mm" width="2mm" x="36mm" y="56mm"/><rect height="2mm" width="2mm" x="38mm" y="56mm"/><rect height="2mm" width="2mm" x="40mm" y="56mm"/><rect height="2mm" width="2mm" x="42mm" y="56mm"/><rect height="2mm" width="2mm" x="44mm" y="56mm"/><rect height="2mm" width="2mm" x="48mm" y="56mm"/><rect height="2mm" width="2mm" x="50mm" y="56mm"/><rect height="2mm" width="2mm" x="52mm" y="56mm"/><rect height="2mm" width="2mm" x="54mm" y="56mm"/><rect height="2mm" width="2mm" x="56mm" y="56mm"/><rect height="2mm" width="2mm" x="66mm" y="56mm"/><rect height="2mm" width="2mm" x="70mm" y="56mm"/><rect height="2mm" width="2mm" x="88mm" y="56mm"/><rect height="2mm" width="2mm" x="8mm" y="58mm"/><rect height="2mm" width="2mm" x="12mm" y="58mm"/><rect height="2mm" width="2mm" x="18mm" y="58mm"/><rect height="2mm" width="2mm" x="22mm" y="58mm"/><rect height="2mm" width="2mm" x="24mm" y="58mm"/><rect height="2mm" width="2mm" x="26mm" y="58mm"/><rect height="2mm" width="2mm" x="28mm" y="58mm"/><rect height="2mm" width="2mm" x="30mm" y="58mm"/><rect height="2mm" width="2mm" x="34mm" y="58mm"/><rect height="2mm" width="2mm" x="40mm" y="58mm"/><rect height="2mm" width="2mm" x="46mm" y="58mm"/><rect height="2mm" width="2mm" x="54mm" y="58mm"/><rect height="2mm" width="2mm" x="62mm" y="58mm"/><rect height="2mm" width="2mm" x="64mm" y="58mm"/><rect height="2mm" width="2mm" x="66mm" y="58mm"/><rect height="2mm" width="2mm" x="68mm" y="58mm"/><rect height="2mm" width="2mm" x="70mm" y="58mm"/><rect height="2mm" width="2mm" x="76mm" y="58mm"/><rect height="2mm" width="2mm" x="88mm" y="58mm"/><rect height="2mm" width="2mm" x="12mm" y="60mm"/><rect height="2mm" width="2mm" x="14mm" y="60mm"/><rect height="2mm" width="2mm" x="16mm" y="60mm"/><rect height="2mm" width="2mm" x="18mm" y="60mm"/><rect height="2mm" width="2mm" x="20mm" y="60mm"/><rect height="2mm" width="2mm" x="24mm" y="60mm"/><rect height="2mm" width="2mm" x="32mm" y="60mm"/><rect height="2mm" width="2mm" x="34mm" y="60mm"/><rect height="2mm" width="2mm" x="40mm" y="60mm"/><rect height="2mm" width="2mm" x="46mm" y="60mm"/><rect height="2mm" width="2mm" x="50mm" y="60mm"/><rect height="2mm" width="2mm" x="58mm" y="60mm"/><rect height="2mm" width="2mm" x="60mm" y="60mm"/><rect height="2mm" width="2mm" x="64mm" y="60mm"/><rect height="2mm" width="2mm" x="68mm" y="60mm"/><rect height="2mm" width="2mm" x="70mm" y="60mm"/><rect height="2mm" width="2mm" x="74mm" y="60mm"/><rect height="2mm" width="2mm" x="82mm" y="60mm"/><rect height="2mm" width="2mm" x="86mm" y="60mm"/><rect height="2mm" width="2mm" x="88mm" y="60mm"/><rect height="2mm" width="2mm" x="12mm" y="62mm"/><rect height="2mm" width="2mm" x="22mm" y="62mm"/><rect height="2mm" width="2mm" x="26mm" y="62mm"/><rect height="2mm" width="2mm" x="30mm" y="62mm"/><rect height="2mm" width="2mm" x="32mm" y="62mm"/><rect height="2mm" width="2mm" x="36mm" y="62mm"/><rect height="2mm" width="2mm" x="62mm" y="62mm"/><rect height="2mm" width="2mm" x="64mm" y="62mm"/><rect height="2mm" width="2mm" x="68mm" y="62mm"/><rect height="2mm" width="2mm" x="72mm" y="62mm"/><rect height="2mm" width="2mm" x="74mm" y="62mm"/><rect height="2mm" width="2mm" x="76mm" y="62mm"/><rect height="2mm" width="2mm" x="78mm" y="62mm"/><rect height="2mm" width="2mm" x="80mm" y="62mm"/><rect height="2mm" width="2mm" x="82mm" y="62mm"/><rect height="2mm" width="2mm" x="88mm" y="62mm"/><rect height="2mm" width="2mm" x="10mm" y="64mm"/><rect height="2mm" width="2mm" x="16mm" y="64mm"/><rect height="2mm" width="2mm" x="20mm" y="64mm"/><rect height="2mm" width="2mm" x="30mm" y="64mm"/><rect height="2mm" width="2mm" x="32mm" y="64mm"/><rect height="2mm" width="2mm" x="36mm" y="64mm"/><rect height="2mm" width="2mm" x="38mm" y="64mm"/><rect height="2mm" width="2mm" x="40mm" y="64mm"/><rect height="2mm" width="2mm" x="50mm" y="64mm"/><rect height="2mm" width="2mm" x="52mm" y="64mm"/><rect height="2mm" width="2mm" x="54mm" y="64mm"/><rect height="2mm" width="2mm" x="68mm" y="64mm"/><rect height="2mm" width="2mm" x="74mm" y="64mm"/><rect height="2mm" width="2mm" x="76mm" y="64mm"/><rect height="2mm" width="2mm" x="78mm" y="64mm"/><rect height="2mm" width="2mm" x="80mm" y="64mm"/><rect height="2mm" width="2mm" x="14mm" y="66mm"/><rect height="2mm" width="2mm" x="18mm" y="66mm"/><rect height="2mm" width="2mm" x="22mm" y="66mm"/><rect height="2mm" width="2mm" x="28mm" y="66mm"/><rect height="2mm" width="2mm" x="36mm" y="66mm"/><rect height="2mm" width="2mm" x="42mm" y="66mm"/><rect height="2mm" width="2mm" x="44mm" y="66mm"/><rect height="2mm" width="2mm" x="46mm" y="66mm"/><rect height="2mm" width="2mm" x="48mm" y="66mm"/><rect height="2mm" width="2mm" x="50mm" y="66mm"/><rect height="2mm" width="2mm" x="54mm" y="66mm"/><rect height="2mm" width="2mm" x="58mm" y="66mm"/><rect height="2mm" width="2mm" x="66mm" y="66mm"/><rect height="2mm" width="2mm" x="70mm" y="66mm"/><rect height="2mm" width="2mm" x="76mm" y="66mm"/><rect height="2mm" width="2mm" x="78mm" y="66mm"/><rect height="2mm" width="2mm" x="82mm" y="66mm"/><rect height="2mm" width="2mm" x="8mm" y="68mm"/><rect height="2mm" width="2mm" x="16mm" y="68mm"/><rect height="2mm" width="2mm" x="18mm" y="68mm"/><rect height="2mm" width="2mm" x="20mm" y="68mm"/><rect height="2mm" width="2mm" x="24mm" y="68mm"/><rect height="2mm" width="2mm" x="30mm" y="68mm"/><rect height="2mm" width="2mm" x="32mm" y="68mm"/><rect height="2mm" width="2mm" x="34mm" y="68mm"/><rect height="2mm" width="2mm" x="38mm" y="68mm"/><rect height="2mm" width="2mm" x="40mm" y="68mm"/><rect height="2mm" width="2mm" x="42mm" y="68mm"/><rect height="2mm" width="2mm" x="46mm" y="68mm"/><rect height="2mm" width="2mm" x="48mm" y="68mm"/><rect height="2mm" width="2mm" x="50mm" y="68mm"/><rect height="2mm" width="2mm" x="60mm" y="68mm"/><rect height="2mm" width="2mm" x="66mm" y="68mm"/><rect height="2mm" width="2mm" x="72mm" y="68mm"/><rect height="2mm" width="2mm" x="74mm" y="68mm"/><rect height="2mm" width="2mm" x="76mm" y="68mm"/><rect height="2mm" width="2mm" x="78mm" y="68mm"/><rect height="2mm" width="2mm" x="80mm" y="68mm"/><rect height="2mm" width="2mm" x="82mm" y="68mm"/><rect height="2mm" width="2mm" x="84mm" y="68mm"/><rect height="2mm" width="2mm" x="12mm" y="70mm"/><rect height="2mm" width="2mm" x="16mm" y="70mm"/><rect height="2mm" width="2mm" x="24mm" y="70mm"/><rect height="2mm" width="2mm" x="30mm" y="70mm"/><rect height="2mm" width="2mm" x="36mm" y="70mm"/><rect height="2mm" width="2mm" x="50mm" y="70mm"/><rect height="2mm" width="2mm" x="56mm" y="70mm"/><rect height="2mm" width="2mm" x="58mm" y="70mm"/><rect height="2mm" width="2mm" x="62mm" y="70mm"/><rect height="2mm" width="2mm" x="64mm" y="70mm"/><rect height="2mm" width="2mm" x="66mm" y="70mm"/><rect height="2mm" width="2mm" x="68mm" y="70mm"/><rect height="2mm" width="2mm" x="72mm" y="70mm"/><rect height="2mm" width="2mm" x="78mm" y="70mm"/><rect height="2mm" width="2mm" x="80mm" y="70mm"/><rect height="2mm" width="2mm" x="82mm" y="70mm"/><rect height="2mm" width="2mm" x="84mm" y="70mm"/><rect height="2mm" width="2mm" x="86mm" y="70mm"/><rect height="2mm" width="2mm" x="88mm" y="70mm"/><rect height="2mm" width="2mm" x="10mm" y="72mm"/><rect height="2mm" width="2mm" x="14mm" y="72mm"/><rect height="2mm" width="2mm" x="16mm" y="72mm"/><rect height="2mm" width="2mm" x="20mm" y="72mm"/><rect height="2mm" width="2mm" x="24mm" y="72mm"/><rect height="2mm" width="2mm" x="26mm" y="72mm"/><rect height="2mm" width="2mm" x="32mm" y="72mm"/><rect height="2mm" width="2mm" x="36mm" y="72mm"/><rect height="2mm" width="2mm" x="42mm" y="72mm"/><rect height="2mm" width="2mm" x="46mm" y="72mm"/><rect height="2mm" width="2mm" x="48mm" y="72mm"/><rect height="2mm" width="2mm" x="54mm" y="72mm"/><rect height="2mm" width="2mm" x="56mm" y="72mm"/><rect height="2mm" width="2mm" x="60mm" y="72mm"/><rect height="2mm" width="2mm" x="62mm" y="72mm"/><rect height="2mm" width="2mm" x="64mm" y="72mm"/><rect height="2mm" width="2mm" x="66mm" y="72mm"/><rect height="2mm" width="2mm" x="68mm" y="72mm"/><rect height="2mm" width="2mm" x="70mm" y="72mm"/><rect height="2mm" width="2mm" x="72mm" y="72mm"/><rect height="2mm" width="2mm" x="74mm" y="72mm"/><rect height="2mm" width="2mm" x="76mm" y="72mm"/><rect height="2mm" width="2mm" x="78mm" y="72mm"/><rect height="2mm" width="2mm" x="80mm" y="72mm"/><rect height="2mm" width="2mm" x="82mm" y="72mm"/><rect height="2mm" width="2mm" x="84mm" y="72mm"/><rect height="2mm" width="2mm" x="86mm" y="72mm"/><rect height="2mm" width="2mm" x="24mm" y="74mm"/><rect height="2mm" width="2mm" x="26mm" y="74mm"/><rect height="2mm" width="2mm" x="32mm" y="74mm"/><rect height="2mm" width="2mm" x="36mm" y="74mm"/><rect height="2mm" width="2mm" x="40mm" y="74mm"/><rect height="2mm" width="2mm" x="44mm" y="74mm"/><rect height="2mm" width="2mm" x="48mm" y="74mm"/><rect height="2mm" width="2mm" x="52mm" y="74mm"/><rect height="2mm" width="2mm" x="56mm" y="74mm"/><rect height="2mm" width="2mm" x="64mm" y="74mm"/><rect height="2mm" width="2mm" x="68mm" y="74mm"/><rect height="2mm" width="2mm" x="70mm" y="74mm"/><rect height="2mm" width="2mm" x="72mm" y="74mm"/><rect height="2mm" width="2mm" x="80mm" y="74mm"/><rect height="2mm" width="2mm" x="84mm" y="74mm"/><rect height="2mm" width="2mm" x="86mm" y="74mm"/><rect height="2mm" width="2mm" x="88mm" y="74mm"/><rect height="2mm" width="2mm" x="8mm" y="76mm"/><rect height="2mm" width="2mm" x="10mm" y="76mm"/><rect height="2mm" width="2mm" x="12mm" y="76mm"/><rect height="2mm" width="2mm" x="14mm" y="76mm"/><rect height="2mm" width="2mm" x="16mm" y="76mm"/><rect height="2mm" width="2mm" x="18mm" y="76mm"/><rect height="2mm" width="2mm" x="20mm" y="76mm"/><rect height="2mm" width="2mm" x="24mm" y="76mm"/><rect height="2mm" width="2mm" x="26mm" y="76mm"/><rect height="2mm" width="2mm" x="32mm" y="76mm"/><rect height="2mm" width="2mm" x="34mm" y="76mm"/><rect height="2mm" width="2mm" x="38mm" y="76mm"/><rect height="2mm" width="2mm" x="40mm" y="76mm"/><rect height="2mm" width="2mm" x="44mm" y="76mm"/><rect height="2mm" width="2mm" x="58mm" y="76mm"/><rect height="2mm" width="2mm" x="66mm" y="76mm"/><rect height="2mm" width="2mm" x="70mm" y="76mm"/><rect height="2mm" width="2mm" x="72mm" y="76mm"/><rect height="2mm" width="2mm" x="76mm" y="76mm"/><rect height="2mm" width="2mm" x="80mm" y="76mm"/><rect height="2mm" width="2mm" x="82mm" y="76mm"/><rect height="2mm" width="2mm" x="84mm" y="76mm"/><rect height="2mm" width="2mm" x="86mm" y="76mm"/><rect height="2mm" width="2mm" x="8mm" y="78mm"/><rect height="2mm" width="2mm" x="20mm" y="78mm"/><rect height="2mm" width="2mm" x="26mm" y="78mm"/><rect height="2mm" width="2mm" x="28mm" y="78mm"/><rect height="2mm" width="2mm" x="30mm" y="78mm"/><rect height="2mm" width="2mm" x="32mm" y="78mm"/><rect height="2mm" width="2mm" x="34mm" y="78mm"/><rect height="2mm" width="2mm" x="38mm" y="78mm"/><rect height="2mm" width="2mm" x="40mm" y="78mm"/><rect height="2mm" width="2mm" x="42mm" y="78mm"/><rect height="2mm" width="2mm" x="44mm" y="78mm"/><rect height="2mm" width="2mm" x="46mm" y="78mm"/><rect height="2mm" width="2mm" x="48mm" y="78mm"/><rect height="2mm" width="2mm" x="50mm" y="78mm"/><rect height="2mm" width="2mm" x="52mm" y="78mm"/><rect height="2mm" width="2mm" x="54mm" y="78mm"/><rect height="2mm" width="2mm" x="56mm" y="78mm"/><rect height="2mm" width="2mm" x="64mm" y="78mm"/><rect height="2mm" width="2mm" x="68mm" y="78mm"/><rect height="2mm" width="2mm" x="72mm" y="78mm"/><rect height="2mm" width="2mm" x="80mm" y="78mm"/><rect height="2mm" width="2mm" x="88mm" y="78mm"/><rect height="2mm" width="2mm" x="8mm" y="80mm"/><rect height="2mm" width="2mm" x="12mm" y="80mm"/><rect height="2mm" width="2mm" x="14mm" y="80mm"/><rect height="2mm" width="2mm" x="16mm" y="80mm"/><rect height="2mm" width="2mm" x="20mm" y="80mm"/><rect height="2mm" width="2mm" x="26mm" y="80mm"/><rect height="2mm" width="2mm" x="28mm" y="80mm"/><rect height="2mm" width="2mm" x="30mm" y="80mm"/><rect height="2mm" width="2mm" x="32mm" y="80mm"/><rect height="2mm" width="2mm" x="34mm" y="80mm"/><rect height="2mm" width="2mm" x="36mm" y="80mm"/><rect height="2mm" width="2mm" x="42mm" y="80mm"/><rect height="2mm" width="2mm" x="44mm" y="80mm"/><rect height="2mm" width="2mm" x="52mm" y="80mm"/><rect height="2mm" width="2mm" x="56mm" y="80mm"/><rect height="2mm" width="2mm" x="60mm" y="80mm"/><rect height="2mm" width="2mm" x="68mm" y="80mm"/><rect height="2mm" width="2mm" x="72mm" y="80mm"/><rect height="2mm" width="2mm" x="74mm" y="80mm"/><rect height="2mm" width="2mm" x="76mm" y="80mm"/><rect height="2mm" width="2mm" x="78mm" y="80mm"/><rect height="2mm" width="2mm" x="80mm" y="80mm"/><rect height="2mm" width="2mm" x="84mm" y="80mm"/><rect height="2mm" width="2mm" x="86mm" y="80mm"/><rect height="2mm" width="2mm" x="88mm" y="80mm"/><rect height="2mm" width="2mm" x="8mm" y="82mm"/><rect height="2mm" width="2mm" x="12mm" y="82mm"/><rect height="2mm" width="2mm" x="14mm" y="82mm"/><rect height="2mm" width="2mm" x="16mm" y="82mm"/><rect height="2mm" width="2mm" x="20mm" y="82mm"/><rect height="2mm" width="2mm" x="24mm" y="82mm"/><rect height="2mm" width="2mm" x="26mm" y="82mm"/><rect height="2mm" width="2mm" x="34mm" y="82mm"/><rect height="2mm" width="2mm" x="40mm" y="82mm"/><rect height="2mm" width="2mm" x="42mm" y="82mm"/><rect height="2mm" width="2mm" x="46mm" y="82mm"/><rect height="2mm" width="2mm" x="50mm" y="82mm"/><rect height="2mm" width="2mm" x="52mm" y="82mm"/><rect height="2mm" width="2mm" x="58mm" y="82mm"/><rect height="2mm" width="2mm" x="60mm" y="82mm"/><rect height="2mm" width="2mm" x="62mm" y="82mm"/><rect height="2mm" width="2mm" x="64mm" y="82mm"/><rect height="2mm" width="2mm" x="66mm" y="82mm"/><rect height="2mm" width="2mm" x="68mm" y="82mm"/><rect height="2mm" width="2mm" x="72mm" y="82mm"/><rect height="2mm" width="2mm" x="74mm" y="82mm"/><rect height="2mm" width="2mm" x="80mm" y="82mm"/><rect height="2mm" width="2mm" x="84mm" y="82mm"/><rect height="2mm" width="2mm" x="88mm" y="82mm"/><rect height="2mm" width="2mm" x="8mm" y="84mm"/><rect height="2mm" width="2mm" x="12mm" y="84mm"/><rect height="2mm" width="2mm" x="14mm" y="84mm"/><rect height="2mm" width="2mm" x="16mm" y="84mm"/><rect height="2mm" width="2mm" x="20mm" y="84mm"/><rect height="2mm" width="2mm" x="24mm" y="84mm"/><rect height="2mm" width="2mm" x="28mm" y="84mm"/><rect height="2mm" width="2mm" x="30mm" y="84mm"/><rect height="2mm" width="2mm" x="32mm" y="84mm"/><rect height="2mm" width="2mm" x="38mm" y="84mm"/><rect height="2mm" width="2mm" x="42mm" y="84mm"/><rect height="2mm" width="2mm" x="46mm" y="84mm"/><rect height="2mm" width="2mm" x="48mm" y="84mm"/><rect height="2mm" width="2mm" x="56mm" y="84mm"/><rect height="2mm" width="2mm" x="58mm" y="84mm"/><rect height="2mm" width="2mm" x="60mm" y="84mm"/><rect height="2mm" width="2mm" x="66mm" y="84mm"/><rect height="2mm" width="2mm" x="72mm" y="84mm"/><rect height="2mm" width="2mm" x="78mm" y="84mm"/><rect height="2mm" width="2mm" x="88mm" y="84mm"/><rect height="2mm" width="2mm" x="8mm" y="86mm"/><rect height="2mm" width="2mm" x="20mm" y="86mm"/><rect height="2mm" width="2mm" x="26mm" y="86mm"/><rect height="2mm" width="2mm" x="30mm" y="86mm"/><rect height="2mm" width="2mm" x="34mm" y="86mm"/><rect height="2mm" width="2mm" x="44mm" y="86mm"/><rect height="2mm" width="2mm" x="50mm" y="86mm"/><rect height="2mm" width="2mm" x="54mm" y="86mm"/><rect height="2mm" width="2mm" x="56mm" y="86mm"/><rect height="2mm" width="2mm" x="60mm" y="86mm"/><rect height="2mm" width="2mm" x="62mm" y="86mm"/><rect height="2mm" width="2mm" x="72mm" y="86mm"/><rect height="2mm" width="2mm" x="78mm" y="86mm"/><rect height="2mm" width="2mm" x="80mm" y="86mm"/><rect height="2mm" width="2mm" x="86mm" y="86mm"/><rect height="2mm" width="2mm" x="8mm" y="88mm"/><rect height="2mm" width="2mm" x="10mm" y="88mm"/><rect height="2mm" width="2mm" x="12mm" y="88mm"/><rect height="2mm" width="2mm" x="14mm" y="88mm"/><rect height="2mm" width="2mm" x="16mm" y="88mm"/><rect height="2mm" width="2mm" x="18mm" y="88mm"/><rect height="2mm" width="2mm" x="20mm" y="88mm"/><rect height="2mm" width="2mm" x="26mm" y="88mm"/><rect height="2mm" width="2mm" x="32mm" y="88mm"/><rect height="2mm" width="2mm" x="34mm" y="88mm"/><rect height="2mm" width="2mm" x="44mm" y="88mm"/><rect height="2mm" width="2mm" x="48mm" y="88mm"/><rect height="2mm" width="2mm" x="50mm" y="88mm"/><rect height="2mm" width="2mm" x="54mm" y="88mm"/><rect height="2mm" width="2mm" x="56mm" y="88mm"/><rect height="2mm" width="2mm" x="58mm" y="88mm"/><rect height="2mm" width="2mm" x="60mm" y="88mm"/><rect height="2mm" width="2mm" x="62mm" y="88mm"/><rect height="2mm" width="2mm" x="68mm" y="88mm"/><rect height="2mm" width="2mm" x="70mm" y="88mm"/><rect height="2mm" width="2mm" x="72mm" y="88mm"/><rect height="2mm" width="2mm" x="76mm" y="88mm"/><rect height="2mm" width="2mm" x="78mm" y="88mm"/><rect height="2mm" width="2mm" x="80mm" y="88mm"/><rect height="2mm" width="2mm" x="82mm" y="88mm"/><rect height="2mm" width="2mm" x="84mm" y="88mm"/><rect height="2mm" width="2mm" x="86mm" y="88mm"/></svg>